<?xml version="1.0" encoding="UTF-8"?>
<svg id="Layer_1" xmlns="http://www.w3.org/2000/svg" version="1.1" viewBox="0 0 456 267">
  <!-- Generator: Adobe Illustrator 29.0.0, SVG Export Plug-In . SVG Version: 2.1.0 Build 186)  -->
  <defs>
    <style>
      .st0 {
        fill: none;
        stroke: #24a0a0;
        stroke-miterlimit: 10;
        stroke-width: 3px;
      }

      .st1 {
        fill: #24a0a0;
      }
    </style>
  </defs>
  <path class="st0" d="M382.61,136.98l-66.03-57.93-88.25-36.9-88.92,36.9-66.03,57.93-3.09,62.92c-.42,4.56-.66,9.17-.68,13.84l90.16,10.73h125.86l100.76-10.73-3.78-76.76Z"/>
  <g>
    <path class="st1" d="M386.19,209.69l-40.71-61.67,37.21-9.36-.08-1.68-1.51-1.32-37.28,9.37-23.77-62.93-3.47-3.04-5.6-2.06h-165.97l-5.6,2.06-3.3,2.89-23.83,63.08-37.3-9.35v-.1s-1.6,1.4-1.6,1.4l-.08,1.68,37.32,9.36-40.95,61.87c-.04,1.28-.06,2.56-.07,3.84l2.29.27,41.72-63.04,43.05,72.33-1.83.59,4.93.59h2.6l68.71-89.33,53.79,89.33h.76l5.09-.54-.38-.2,52-72.99,41.74,63.24,2.31-.25-.2-4.05ZM140.49,82.05l84.47,48.2-108.09,14.35,23.63-62.55ZM159.98,220.8l-42.9-72.08,109.52-14.54-66.63,86.62ZM147.19,81.12h162.2l-78.14,47.97-84.06-47.97ZM287.43,220.71l-52.13-86.58,103.46,14.53-51.32,72.05ZM237.26,130.24l78.39-48.12,23.59,62.44-101.98-14.33Z"/>
    <path class="st1" d="M285.63,224.85h-.76c-.13,0-.25-.07-.32-.18l-53.5-88.86-68.38,88.9c-.07.09-.18.15-.3.15h-2.6l-4.97-.59c-.18-.02-.31-.16-.33-.34-.02-.18.09-.34.26-.39l1.38-.44-42.5-71.4-41.39,62.54c-.08.12-.22.18-.36.17l-2.29-.27c-.19-.02-.33-.19-.33-.38,0-1.29.03-2.57.07-3.85,0-.07.02-.14.06-.2l40.65-61.43-36.8-9.23c-.17-.04-.29-.2-.28-.38l.08-1.68c0-.1.05-.2.13-.26l1.6-1.4c.11-.1.26-.12.4-.06.07.03.13.08.17.14l36.75,9.21,23.71-62.77c.02-.06.06-.11.1-.15l3.3-2.89s.08-.05.12-.07l5.6-2.06s.09-.02.13-.02h165.97s.09,0,.13.02l5.6,2.06s.08.04.12.07l3.47,3.04s.08.09.1.15l23.65,62.62,36.95-9.29c.12-.03.25,0,.34.08l1.51,1.32c.08.07.12.16.13.26l.08,1.68c0,.18-.11.34-.28.38l-36.7,9.23,40.42,61.23c.04.06.06.12.06.19l.2,4.05c0,.2-.14.37-.34.39l-2.31.25c-.14.01-.28-.05-.35-.17l-41.44-62.78-51.43,72.19c.14.08.22.24.19.4-.03.16-.16.29-.33.31l-5.09.54s-.03,0-.04,0ZM156.6,223.71l3.21.38h2.37s68.6-89.19,68.6-89.19c.08-.1.2-.15.32-.15.12,0,.24.08.3.18l53.68,89.15h.52l4.37-.47s.03-.08.05-.12l52-72.99c.07-.1.19-.16.31-.16.12,0,.24.07.31.17l41.62,63.05,1.73-.18-.18-3.59-40.65-61.58c-.07-.1-.08-.23-.03-.34.04-.11.14-.2.26-.23l36.91-9.28-.06-1.21-1.24-1.09-37.09,9.33c-.19.05-.38-.05-.44-.23l-23.74-62.85-3.34-2.93-5.47-2.02h-165.84l-5.47,2.02-3.17,2.79-23.8,62.99c-.07.18-.26.28-.44.23l-37.2-9.33-1.24,1.09-.06,1.21,37.02,9.28c.12.03.22.12.26.23.04.11.03.24-.04.34l-40.89,61.79c-.03,1.13-.06,2.26-.06,3.39l1.73.21,41.59-62.85c.07-.11.19-.17.32-.17.13,0,.25.07.32.18l43.05,72.33c.06.1.07.22.03.32-.04.11-.13.19-.24.23l-.18.06ZM159.98,221.18s-.02,0-.02,0c-.12,0-.24-.07-.3-.18l-42.9-72.08c-.06-.11-.07-.24-.01-.36.05-.11.16-.19.29-.21l109.52-14.54c.15-.02.3.05.37.19.08.13.07.3-.03.42l-66.62,86.62c-.07.09-.18.15-.3.15ZM117.7,149.02l42.32,71.11,65.73-85.45-108.06,14.35ZM287.43,221.09h-.01c-.13,0-.24-.07-.31-.18l-52.13-86.58c-.08-.12-.07-.28,0-.4.08-.12.22-.18.37-.16l103.46,14.53c.13.02.24.1.29.22.05.12.04.26-.04.37l-51.32,72.05c-.07.1-.19.16-.31.16ZM236.02,134.61l51.43,85.41,50.63-71.08-102.06-14.34ZM116.86,144.97c-.11,0-.22-.05-.3-.14-.08-.1-.1-.24-.06-.37l23.63-62.55c.04-.1.12-.18.22-.22.1-.04.22-.03.31.03l84.46,48.2c.14.08.21.24.18.4s-.16.28-.32.3l-108.09,14.35s-.03,0-.05,0ZM140.69,82.59l-23.25,61.55,106.36-14.12-83.11-47.43ZM339.24,144.94s-.04,0-.05,0l-101.98-14.33c-.16-.02-.28-.14-.32-.3-.03-.16.04-.31.17-.4l78.39-48.12c.1-.06.21-.07.32-.03.11.04.19.12.23.22l23.59,62.44c.05.12.03.26-.06.37-.07.09-.18.14-.29.14ZM238.35,130.01l100.31,14.09-23.2-61.42-77.11,47.33ZM231.25,129.46c-.06,0-.13-.02-.19-.05l-84.06-47.96c-.15-.08-.22-.26-.18-.42.04-.17.19-.28.36-.28h162.2c.17,0,.32.11.36.27.05.16-.02.33-.16.42l-78.14,47.97c-.06.04-.13.06-.2.06ZM148.61,81.5l82.64,47.15,76.82-47.15h-159.45Z"/>
  </g>
</svg>