<?xml version="1.0" encoding="UTF-8"?>
<svg id="Layer_1" xmlns="http://www.w3.org/2000/svg" version="1.1" viewBox="0 0 456 267">
  <!-- Generator: Adobe Illustrator 29.0.0, SVG Export Plug-In . SVG Version: 2.1.0 Build 186)  -->
  <defs>
    <style>
      .st0 {
        fill: none;
        stroke: #24a0a0;
        stroke-miterlimit: 10;
        stroke-width: 5px;
      }
    </style>
  </defs>
  <g>
    <path class="st0" d="M122.88,78s55.29-30.35,105.12-36.35c0,0,53.35,7.41,103.47,36.35,0,0-21.18,2.47-28.59,5.29,0,0-25.41-4.24-39.88,0,0,0-36.35-8.12-69.18,0,0,0-23.29-6.35-45.53-1.76,0,0-9.18-6.35-25.41-3.53Z"/>
    <path class="st0" d="M224.88,41.65s-24,23.65-31.06,41.65"/>
    <path class="st0" d="M148.29,81.53s43.65-31.41,79.71-39.88c0,0,24.41,12.71,35,41.65"/>
    <path class="st0" d="M302.88,83.29s-44.12-33.53-73.06-41.65"/>
  </g>
  <line class="st0" x1="227.18" y1="79.69" x2="227.18" y2="226.24"/>
  <g>
    <line class="st0" x1="196.65" y1="175.06" x2="258.41" y2="175.06"/>
    <path class="st0" d="M253.41,175.47s-26.47,22.94,0,49.76"/>
    <path class="st0" d="M245.41,175.47s-26.47,22.94,0,49.76"/>
    <path class="st0" d="M200.65,175.47s26.47,22.94,0,49.76"/>
    <path class="st0" d="M208.65,175.47s26.47,22.94,0,49.76"/>
  </g>
  <g>
    <path class="st0" d="M303.85,225.44c-1.76-8.36-3.24-19.77-2.25-33.22.63-8.58,2.21-17.08,4.67-25.32,1.41-4.71,11.11-18.47,3.35-21.31-9.73-3.55-15.76,18.81-17.46,24.77-7.09,24.78-1.22,46.2,2.08,55.7"/>
    <line class="st0" x1="304.96" y1="170.47" x2="292.16" y2="170.4"/>
    <line class="st0" x1="309.1" y1="159.81" x2="295.5" y2="159.81"/>
    <path class="st0" d="M270.06,188.47c1.52,4.63,3.15,11.21,3.44,19.24.28,7.79-.8,14.31-1.94,18.97"/>
    <path class="st0" d="M261.59,225.24c1.45-3.92,3.01-9.45,3.44-16.21.56-8.81-1.03-15.99-2.44-20.56h40.29"/>
  </g>
  <g>
    <path class="st0" d="M150.34,225.44c1.76-8.36,3.24-19.77,2.25-33.22-.63-8.58-2.21-17.08-4.67-25.32-1.41-4.71-11.11-18.47-3.35-21.31,9.73-3.55,15.76,18.81,17.46,24.77,7.09,24.78,1.22,46.2-2.08,55.7"/>
    <line class="st0" x1="149.24" y1="170.47" x2="162.03" y2="170.4"/>
    <line class="st0" x1="145.09" y1="159.81" x2="158.69" y2="159.81"/>
    <path class="st0" d="M184.13,188.47c-1.52,4.63-3.15,11.21-3.44,19.24-.28,7.79.8,14.31,1.94,18.97"/>
    <path class="st0" d="M192.6,225.24c-1.45-3.92-3.01-9.45-3.44-16.21-.56-8.81,1.03-15.99,2.44-20.56-13.43,0-26.86,0-40.29,0"/>
  </g>
</svg>